<svg width="71" height="71" viewBox="0 0 71 71" fill="none" xmlns="http://www.w3.org/2000/svg">
<g clip-path="url(#clip0_7_212)">
<path d="M68.0427 44.1317H2.12354V69.5454H68.0427V44.1317Z" fill="white"/>
<path d="M0 0V70.7315H70.7315V0H0ZM10.3092 66.2273C6.69139 66.2273 4.23845 64.3738 4.23845 60.9346V60.8028H6.22376V60.89C6.22376 63.141 7.85622 64.4631 10.3262 64.4631C11.6504 64.4631 14.165 63.8892 14.165 61.7721C14.165 57.6697 4.72308 60.5796 4.72308 54.713C4.72308 51.7563 7.47574 50.4341 10.2114 50.4341C13.4317 50.4341 15.6189 52.2855 15.6189 55.2869V55.4187H13.6336V55.2869C13.6336 53.3462 12.2668 52.1984 10.0605 52.1984C8.51728 52.1984 6.7084 52.8594 6.7084 54.6258C6.7084 58.4646 16.1482 55.7736 16.1482 61.6849C16.1482 64.8181 13.2191 66.2295 10.307 66.2295L10.3092 66.2273ZM27.7965 65.7873C27.5754 64.9924 27.5754 63.4045 27.5754 63.4045C26.8251 65.037 25.1055 66.2273 22.4145 66.2273C19.326 66.2273 17.4724 64.5502 17.4724 61.8167C17.4724 57.8461 21.0456 57.4486 24.5316 57.0532L25.2819 56.9661C26.6933 56.7897 27.4436 56.6133 27.4436 55.0679C27.4436 53.0826 26.2958 52.2005 23.8259 52.2005C21.7513 52.2005 20.0763 53.0826 20.0763 55.3336V55.4654H18.091V55.3336C18.091 51.8477 20.8713 50.4363 24.0469 50.4363C27.4883 50.4363 29.4651 51.803 29.4651 55.0233V63.141C29.4651 63.8467 29.5905 65.3473 29.7669 65.7873H27.7965ZM37.4573 65.7873H35.2956L30.0007 50.8763H32.3028L36.3988 63.5108L40.4502 50.8763H42.5737L37.4573 65.7873ZM45.6196 65.7873H43.5451V50.8763H45.6196V65.7873ZM45.9512 46.9503C45.9512 46.9503 45.9491 46.9354 45.9491 46.9269C45.9364 47.7027 45.2944 48.2936 44.5611 48.2936C43.8278 48.2936 43.171 47.6921 43.171 46.9035C43.171 46.1617 43.8193 45.5601 44.5611 45.5601C45.3029 45.5601 45.9364 46.151 45.9491 46.9269C45.9491 46.9184 45.9512 46.912 45.9512 46.9035V46.9503ZM49.7221 65.7873H47.6496V45.2285H49.7221V65.7873ZM53.782 65.7873H51.7095V45.2285H53.782V65.7873ZM61.043 66.2273C57.3806 66.2273 54.9276 64.3738 54.9276 60.9346V60.8028H56.913V60.89C56.913 63.141 58.5879 64.4631 61.0154 64.4631C62.3375 64.4631 64.8967 63.8892 64.8967 61.7721C64.8967 57.6697 55.4102 60.5796 55.4102 54.713C55.4102 51.7563 58.1628 50.4341 60.8985 50.4341C64.1634 50.4341 66.3506 52.2855 66.3506 55.2869V55.4187H64.3653V55.2869C64.3653 53.3462 62.9986 52.1984 60.7922 52.1984C59.2044 52.1984 57.3955 52.8594 57.3955 54.6258C57.3955 58.4646 66.8799 55.7736 66.8799 61.6849C66.8799 64.8181 63.9508 66.2295 61.0388 66.2295L61.043 66.2273Z" fill="#1D1D1B"/>
<path d="M24.5784 58.639C21.932 58.9472 19.462 59.4786 19.462 61.7721C19.462 63.6681 21.0945 64.4631 22.5505 64.4631C24.0066 64.4631 25.3733 63.9338 26.3001 63.0071C27.0504 62.2121 27.4479 61.1557 27.4479 60.0078V58.0225C27.1397 58.2861 26.3894 58.42 25.9919 58.4647L24.5805 58.6411L24.5784 58.639Z" fill="#1D1D1B"/>
</g>
<defs>
<clipPath id="clip0_7_212">
<rect width="70.7315" height="70.7315" fill="white"/>
</clipPath>
</defs>
</svg>
