<svg width="235" height="65" viewBox="0 0 235 65" fill="none" xmlns="http://www.w3.org/2000/svg">
<g clip-path="url(#clip0_7_190)">
<path d="M0.508545 6.59065H3.49901L11.9619 27.3304L20.4611 6.59065H23.3548L13.1242 30.834H10.7391L0.508545 6.59065Z" fill="black"/>
<path d="M31.0063 6.59065H33.6941V30.6625H31.0063V6.59065Z" fill="black"/>
<path d="M41.8181 27.1589L43.4889 25.1621C45.9709 27.4651 48.356 28.5677 51.6491 28.5677C54.9423 28.5677 56.9521 26.8526 56.9521 24.4761V24.4026C56.9521 22.1608 55.7656 20.9235 50.7653 19.8332C45.2929 18.6327 42.7746 16.8441 42.7746 12.8873V12.8138C42.7746 9.06522 46.0677 6.24765 50.5958 6.24765C54.0948 6.24765 56.5162 7.23992 58.9619 9.19997L57.4 11.2948C55.1965 9.46947 52.9809 8.68546 50.5353 8.68546C47.4116 8.68546 45.4745 10.376 45.4745 12.5688V12.6423C45.4745 14.9086 46.661 16.2194 51.9276 17.3219C57.2305 18.5224 59.6762 20.4457 59.6762 24.1331V24.2066C59.6762 28.3349 56.2741 31.0177 51.5523 31.0177C47.7506 31.0177 44.6875 29.7804 41.8302 27.1711L41.8181 27.1589Z" fill="black"/>
<path d="M68.0906 6.59065H70.7784V30.6625H68.0906V6.59065Z" fill="black"/>
<path d="M79.4109 18.6939V18.6204C79.4109 11.9808 84.3385 6.17415 91.5786 6.17415C98.8187 6.17415 103.686 11.9195 103.686 18.5592V18.6327C103.686 25.2723 98.7581 31.079 91.518 31.079C84.278 31.079 79.4109 25.3336 79.4109 18.6939ZM100.889 18.6939V18.6204C100.889 13.1568 96.9421 8.68546 91.5059 8.68546C86.0698 8.68546 82.1955 13.0833 82.1955 18.5592V18.6327C82.1955 24.0963 86.1425 28.5677 91.5786 28.5677C97.0147 28.5677 100.889 24.1698 100.889 18.6939Z" fill="black"/>
<path d="M112.076 6.59065H114.594L129.583 25.8848V6.59065H132.198V30.6625H130.055L114.691 10.915V30.6625H112.076V6.59065Z" fill="black"/>
<path d="M139.947 26.4729L147.865 19.9067C150.855 17.4322 151.981 16.1214 151.981 14.1246C151.981 12.1278 150.686 11.0008 148.785 11.0008C146.884 11.0008 145.686 12.0298 143.918 14.2348L140.249 11.2458C142.598 8.04844 144.874 6.2599 149.124 6.2599C154.015 6.2599 157.321 9.18771 157.321 13.6836V13.7571C157.321 17.8119 155.287 19.7475 151.061 23.0795L147.187 26.1054H157.551V30.6747H139.947V26.4851V26.4729Z" fill="black"/>
<path d="M164.016 18.6939V18.6204C164.016 11.6378 168.265 6.17415 174.621 6.17415C180.978 6.17415 185.155 11.5398 185.155 18.5592V18.6327C185.155 25.6153 180.905 31.079 174.549 31.079C168.193 31.079 164.016 25.7133 164.016 18.6939ZM179.791 18.6939V18.6204C179.791 14.2471 177.685 10.9518 174.561 10.9518C171.437 10.9518 169.391 14.1491 169.391 18.5592V18.6327C169.391 23.0305 171.462 26.3014 174.621 26.3014C177.781 26.3014 179.791 23.104 179.791 18.6939Z" fill="black"/>
<path d="M191.039 26.4729L198.957 19.9067C201.947 17.4322 203.073 16.1214 203.073 14.1246C203.073 12.1278 201.778 11.0008 199.877 11.0008C197.976 11.0008 196.778 12.0298 195.01 14.2348L191.341 11.2458C193.69 8.04844 195.966 6.2599 200.216 6.2599C205.107 6.2599 208.413 9.18771 208.413 13.6836V13.7571C208.413 17.8119 206.379 19.7475 202.153 23.0795L198.279 26.1054H208.643V30.6747H191.039V26.4851V26.4729Z" fill="black"/>
<path d="M217.929 28.4942C216.198 26.7424 215.108 24.1576 215.108 19.3799V19.3064C215.108 11.8828 218.437 6.1619 225.544 6.1619C228.813 6.1619 230.884 7.12967 232.99 8.80796L230.242 12.8996C228.716 11.699 227.421 10.9763 225.387 10.9763C221.815 10.9763 220.762 14.4553 220.592 16.5501C221.852 15.6926 223.341 15.0066 225.52 15.0066C230.242 15.0066 233.886 17.6527 233.886 22.6753V22.7488C233.886 27.6979 229.975 31.0667 224.806 31.0667C221.682 31.0667 219.6 30.1724 217.941 28.4819L217.929 28.4942ZM228.68 22.9938V22.9203C228.68 20.8622 227.118 19.4167 224.527 19.4167C221.936 19.4167 220.447 20.8255 220.447 22.8958V22.9693C220.447 25.0273 222.009 26.5464 224.6 26.5464C227.191 26.5464 228.68 25.0641 228.68 23.006V22.9938Z" fill="black"/>
<path d="M10.1942 40.3402H15.025L25.2192 64.5835H19.7468L17.5675 59.1811H7.51855L5.33926 64.5835H0L10.1942 40.3402ZM15.703 54.5138L12.543 46.7103L9.38305 54.5138H15.703Z" fill="black"/>
<path d="M31.6118 40.5117H36.4426L47.5933 55.3345V40.5117H52.763V64.5835H48.3076L36.7816 49.2829V64.5835H31.6118V40.5117Z" fill="black"/>
<path d="M61.1897 40.5117H70.4759C77.9581 40.5117 83.1158 45.7058 83.1158 52.4802V52.5537C83.1158 59.3281 77.946 64.5957 70.4759 64.5957H61.1897V40.5239V40.5117ZM66.42 45.3015V59.8181H70.4638C74.7134 59.8181 77.6312 56.8903 77.6312 52.6272V52.5537C77.6312 48.2906 74.7134 45.3015 70.4638 45.3015H66.42Z" fill="black"/>
<path d="M96.9541 40.3402H101.785L111.979 64.5835H106.507L104.327 59.1811H94.2663L92.0871 64.5835H86.7478L96.942 40.3402H96.9541ZM102.451 54.5138L99.2908 46.7103L96.1309 54.5138H102.451Z" fill="black"/>
<path d="M118.372 40.5117H123.602V59.7691H135.467V64.5835H118.372V40.5117Z" fill="black"/>
<path d="M141.073 54.2687V40.5117H146.303V54.134C146.303 58.0908 148.204 60.0876 151.436 60.0876C154.669 60.0876 156.57 58.1643 156.57 54.3055V40.5117H161.8V54.0972C161.8 61.3862 157.756 64.9632 151.364 64.9632C144.971 64.9632 141.061 61.3862 141.061 54.2687H141.073Z" fill="black"/>
<path d="M168.81 52.6272V52.5537C168.81 45.7058 173.907 40.1074 181.22 40.1074C185.675 40.1074 188.424 41.6265 190.603 43.8193L187.273 47.7026C185.409 46.0121 183.605 44.983 181.184 44.983C177.176 44.983 174.283 48.3519 174.283 52.4802V52.5537C174.283 56.6821 177.103 60.1244 181.184 60.1244C183.908 60.1244 185.566 59.0586 187.443 57.3068L190.772 60.7124C188.327 63.3585 185.639 65.0123 181.014 65.0123C174.016 65.0123 168.81 59.5486 168.81 52.6272Z" fill="black"/>
<path d="M197.916 40.5117H203.146V64.5835H197.916V40.5117ZM202.565 33.2228L207.02 35.1828L202.395 38.6251H198.448L202.565 33.2228Z" fill="black"/>
<path d="M219.975 40.3402H224.806L235 64.5835H229.527L227.348 59.1811H217.287L215.108 64.5835H209.769L219.963 40.3402H219.975ZM225.484 54.5138L222.324 46.7103L219.164 54.5138H225.484Z" fill="black"/>
<path d="M102.463 0V2.49906H80.6216V0H102.463Z" fill="black"/>
</g>
<defs>
<clipPath id="clip0_7_190">
<rect width="235" height="65" fill="white"/>
</clipPath>
</defs>
</svg>
