<svg width="310" height="26" viewBox="0 0 310 26" fill="none" xmlns="http://www.w3.org/2000/svg">
<g clip-path="url(#clip0_7_170)">
<path d="M0 5.40909H2.32094L8.88909 20.8L15.4854 5.40909H17.7312L9.79116 23.4H7.94004L0 5.40909Z" fill="black"/>
<path d="M23.6697 5.40909H25.7557V23.2727H23.6697V5.40909Z" fill="black"/>
<path d="M32.0515 20.6727L33.3482 19.1909C35.2745 20.9 37.1162 21.7182 39.6815 21.7182C42.2467 21.7182 43.7971 20.4455 43.7971 18.6818V18.6273C43.7971 16.9727 42.8763 16.0455 38.9955 15.2364C34.7483 14.3455 32.7938 13.0182 32.7938 10.0818V10.0273C32.7938 7.24545 35.3497 5.15454 38.864 5.15454C41.5796 5.15454 43.4589 5.89091 45.357 7.34545L44.1448 8.9C42.4346 7.54545 40.7151 6.96364 38.817 6.96364C36.3927 6.96364 34.8893 8.21818 34.8893 9.84545V9.9C34.8893 11.5818 35.8101 12.5545 39.8976 13.3727C44.0133 14.2636 45.9114 15.6909 45.9114 18.4273V18.4818C45.9114 21.5455 43.2709 23.5364 39.6063 23.5364C36.6558 23.5364 34.2785 22.6182 32.0609 20.6818L32.0515 20.6727Z" fill="black"/>
<path d="M52.4512 5.40909H54.5372V23.2727H52.4512V5.40909Z" fill="black"/>
<path d="M61.2371 14.3909V14.3364C61.2371 9.40909 65.0614 5.1 70.6805 5.1C76.2997 5.1 80.077 9.36364 80.077 14.2909V14.3455C80.077 19.2727 76.2527 23.5818 70.6336 23.5818C65.0145 23.5818 61.2371 19.3182 61.2371 14.3909ZM77.9065 14.3909V14.3364C77.9065 10.2818 74.8432 6.96363 70.6242 6.96363C66.4051 6.96363 63.3983 10.2273 63.3983 14.2909V14.3455C63.3983 18.4 66.4615 21.7182 70.6805 21.7182C74.8996 21.7182 77.9065 18.4545 77.9065 14.3909Z" fill="black"/>
<path d="M86.5889 5.40909H88.5433L100.176 19.7273V5.40909H102.206V23.2727H100.543L88.6185 8.61818V23.2727H86.5889V5.40909Z" fill="black"/>
<path d="M135.526 5.28182H139.275L147.187 23.2727H142.94L141.248 19.2636H133.44L131.748 23.2727H127.604L135.516 5.28182H135.526ZM139.801 15.8L137.349 10.0091L134.896 15.8H139.801Z" fill="black"/>
<path d="M152.148 5.40909H155.897L164.552 16.4091V5.40909H168.564V23.2727H165.106L156.161 11.9182V23.2727H152.148V5.40909Z" fill="black"/>
<path d="M175.104 5.40909H182.311C188.118 5.40909 192.121 9.26364 192.121 14.2909V14.3455C192.121 19.3727 188.109 23.2818 182.311 23.2818H175.104V5.40909ZM179.163 8.95455V19.7273H182.301C185.6 19.7273 187.864 17.5545 187.864 14.3909V14.3364C187.864 11.1727 185.59 8.95455 182.301 8.95455H179.163Z" fill="black"/>
<path d="M202.852 5.28182H206.601L214.513 23.2727H210.266L208.574 19.2636H200.766L199.074 23.2727H194.93L202.842 5.28182H202.852ZM207.127 15.8L204.675 10.0091L202.222 15.8H207.127Z" fill="black"/>
<path d="M219.474 5.40909H223.533V19.7H232.742V23.2727H219.474V5.40909Z" fill="black"/>
<path d="M237.102 15.6182V5.40909H241.161V15.5182C241.161 18.4545 242.636 19.9364 245.145 19.9364C247.654 19.9364 249.129 18.5091 249.129 15.6455V5.40909H253.189V15.4909C253.189 20.9 250.05 23.5545 245.089 23.5545C240.128 23.5545 237.093 20.9 237.093 15.6182H237.102Z" fill="black"/>
<path d="M258.629 14.3909V14.3364C258.629 9.25454 262.585 5.1 268.261 5.1C271.719 5.1 273.852 6.22727 275.543 7.85454L272.959 10.7364C271.512 9.48182 270.112 8.71818 268.233 8.71818C265.122 8.71818 262.877 11.2182 262.877 14.2818V14.3364C262.877 17.4 265.066 19.9545 268.233 19.9545C270.347 19.9545 271.634 19.1636 273.091 17.8636L275.675 20.3909C273.777 22.3545 271.691 23.5818 268.101 23.5818C262.67 23.5818 258.629 19.5273 258.629 14.3909Z" fill="black"/>
<path d="M281.209 5.40909H285.268V23.2727H281.209V5.40909ZM284.827 0L288.285 1.45455L284.695 4.00909H281.632L284.827 0Z" fill="black"/>
<path d="M298.339 5.28182H302.088L310 23.2727H305.753L304.061 19.2636H296.253L294.562 23.2727H290.418L298.33 5.28182H298.339ZM302.605 15.8L300.152 10.0091L297.7 15.8H302.605Z" fill="black"/>
<path d="M117.531 2.31818H115.652V26H117.531V2.31818Z" fill="black"/>
<path d="M79.1561 0.672726V2.52727H62.2048V0.672726H79.1561Z" fill="black"/>
</g>
<defs>
<clipPath id="clip0_7_170">
<rect width="310" height="26" fill="white"/>
</clipPath>
</defs>
</svg>
